<?xml version="1.0" encoding="UTF-8" standalone="no"?>
<svg
   xmlns:dc="http://purl.org/dc/elements/1.1/"
   xmlns:cc="http://creativecommons.org/ns#"
   xmlns:rdf="http://www.w3.org/1999/02/22-rdf-syntax-ns#"
   xmlns:svg="http://www.w3.org/2000/svg"
   xmlns="http://www.w3.org/2000/svg"
   xmlns:sodipodi="http://sodipodi.sourceforge.net/DTD/sodipodi-0.dtd"
   xmlns:inkscape="http://www.inkscape.org/namespaces/inkscape"
   sodipodi:docname="Brasil_A-43.svg"
   inkscape:version="1.0 (4035a4fb49, 2020-05-01)"
   xml:space="preserve"
   enable-background="new 0 0 50.281 50.204"
   viewBox="0 0 50.491342 50.492246"
   height="50.492245"
   width="50.491341"
   y="0px"
   x="0px"
   id="Layer_1"
   version="1.0"><metadata
   id="metadata17"><rdf:RDF><cc:Work
       rdf:about=""><dc:format>image/svg+xml</dc:format><dc:type
         rdf:resource="http://purl.org/dc/dcmitype/StillImage" /></cc:Work></rdf:RDF></metadata><defs
   id="defs15" /><sodipodi:namedview
   inkscape:document-rotation="0"
   inkscape:current-layer="Layer_1"
   inkscape:window-maximized="1"
   inkscape:window-y="-9"
   inkscape:window-x="-9"
   inkscape:cy="23.170867"
   inkscape:cx="0.019957086"
   inkscape:zoom="9.4016416"
   fit-margin-left="0.1"
   fit-margin-right="0.1"
   fit-margin-bottom="0.1"
   fit-margin-top="0.1"
   showgrid="false"
   id="namedview13"
   inkscape:window-height="1001"
   inkscape:window-width="1920"
   inkscape:pageshadow="2"
   inkscape:pageopacity="0"
   guidetolerance="10"
   gridtolerance="10"
   objecttolerance="10"
   borderopacity="1"
   bordercolor="#666666"
   pagecolor="#ffffff" />
<path
   inkscape:connector-curvature="0"
   style="fill:#ffd700;fill-opacity:1;fill-rule:evenodd;stroke:none"
   id="path3"
   d="m 1.1090994,22.546331 21.5769996,-21.451 c 1.421,-1.41299992 3.837,-1.30899992 5.369,0.232 l 21.125,21.247 c 1.532,1.541 1.623,3.957 0.203,5.37 l -21.577,21.454 c -1.421,1.412 -3.837,1.307 -5.369,-0.235 l -21.1259996,-21.246 c -1.532,-1.542 -1.623,-3.958 -0.202,-5.371"
   clip-rule="evenodd" />
<path
   inkscape:connector-curvature="0"
   style="fill:#ffd700;fill-opacity:1;fill-rule:evenodd;stroke:none"
   id="path5"
   d="m 2.5010994,23.464331 21.0939996,-20.973 c 0.92,-0.915 2.484,-0.846 3.475,0.151 l 20.789,20.908 c 0.993,0.997 1.052,2.562 0.132,3.477 l -21.095,20.973 c -0.919,0.914 -2.482,0.847 -3.475,-0.151 l -20.7889996,-20.91 c -0.991,-0.997 -1.05,-2.561 -0.131,-3.475"
   clip-rule="evenodd" />
<path
   style="fill:none;stroke:#000000;stroke-width:1.63;stroke-miterlimit:2.61299992"
   inkscape:connector-curvature="0"
   id="path7"
   d="m 2.5010994,23.464331 21.0939996,-20.973 c 0.92,-0.915 2.484,-0.846 3.475,0.151 l 20.789,20.908 c 0.993,0.997 1.052,2.562 0.132,3.477 l -21.095,20.973 c -0.919,0.914 -2.482,0.847 -3.475,-0.151 l -20.7889996,-20.91 c -0.991,-0.997 -1.05,-2.561 -0.131,-3.475 z"
   stroke-miterlimit="2.613" />


<g
   style="fill:#000000"
   transform="matrix(0.16528585,0,0,0.16528585,12.798531,19.198298)"
   id="g3334"><path
     id="path3229"
     style="font-style:normal;font-variant:normal;font-weight:normal;font-stretch:normal;font-size:51.1668px;line-height:0.7;font-family:'Highway Gothic';-inkscape-font-specification:'Highway Gothic';text-align:center;letter-spacing:0px;word-spacing:2.84px;text-anchor:middle;fill:#000000;fill-opacity:1;stroke:none;stroke-width:1.27926"
     d="m 54.171223,-8.3022265 h -5.88419 l -5.52601,-14.8895415 h -6.49818 v 14.8895415 h -5.42369 V -42.583986 h 13.55921 q 4.19567,0.05117 6.60051,3.070008 2.45601,2.967675 2.45601,6.549351 0,2.71184 -1.48384,5.167847 -1.48383,2.404839 -3.83751,3.479342 z m -6.08885,-24.5089005 q 0,-1.995505 -1.22801,-3.070008 -1.17683,-1.074503 -2.66067,-1.12567 h -7.93085 v 8.442523 h 8.13552 q 1.535,0 2.6095,-1.12567 1.07451,-1.12567 1.07451,-3.121175 z" /><path
     id="path3231"
     style="font-style:normal;font-variant:normal;font-weight:normal;font-stretch:normal;font-size:51.1668px;line-height:0.7;font-family:'Highway Gothic';-inkscape-font-specification:'Highway Gothic';text-align:center;letter-spacing:0px;word-spacing:2.84px;text-anchor:middle;fill:#000000;fill-opacity:1;stroke:none;stroke-width:1.27926"
     d="m 85.771693,-20.582261 q 0,4.042177 -1.58617,7.112185 -1.27917,2.55834 -4.09334,4.1956795 -2.81418,1.58617 -5.98652,1.58617 -3.17234,0 -5.98652,-1.58617 -2.81416,-1.6373395 -4.1445,-4.1956795 -1.535,-3.070008 -1.535,-7.112185 v -22.001725 h 5.42367 v 22.001725 q 0,3.325842 1.68851,5.372515 1.73967,1.9955 4.55384,1.9955 2.81417,0 4.50268,-1.9955 1.73967,-2.046673 1.73967,-5.372515 v -22.001725 h 5.42368 z" /><path
     id="path3233"
     style="font-style:normal;font-variant:normal;font-weight:normal;font-stretch:normal;font-size:51.1668px;line-height:0.7;font-family:'Highway Gothic';-inkscape-font-specification:'Highway Gothic';text-align:center;letter-spacing:0px;word-spacing:2.84px;text-anchor:middle;fill:#000000;fill-opacity:1;stroke:none;stroke-width:1.27926"
     d="m 120.0671,-8.3022265 h -5.73069 l -3.37701,-9.6193615 h -10.69386 l -3.377007,9.6193615 h -5.78185 L 102.87505,-42.583986 h 5.42368 z m -11.05203,-15.1453755 -3.37701,-9.619359 -3.47935,9.619359 z" /><path
     id="path3235"
     style="font-style:normal;font-variant:normal;font-weight:normal;font-stretch:normal;font-size:51.1668px;line-height:0.7;font-family:'Highway Gothic';-inkscape-font-specification:'Highway Gothic';text-align:center;word-spacing:2.84px;text-anchor:middle;fill:#000000;fill-opacity:1;stroke:none;stroke-width:1.32709"
     d="m 49.117523,16.023354 q -1.69856,-3.13171 -5.25492,-3.18479 -2.07012,0 -3.4502,1.27391 -1.38008,1.27392 -1.327,3.02556 0,1.27392 1.22084,2.28244 1.27392,1.00852 3.981,1.43316 6.42267,1.11468 9.28899,4.35256 2.9194,3.1848 2.9194,7.32503 0,4.56488 -3.4502,8.12124 -3.45019,3.50328 -8.59895,3.50328 -8.17432,-0.10616 -12.15531,-8.28048 l 5.36107,-2.70708 q 2.49476,5.14876 6.9004,5.14876 2.54784,0.0531 4.40564,-1.75164 1.85779,-1.8578 1.85779,-4.29948 0.0531,-1.64547 -1.43315,-3.23787 -1.48624,-1.64548 -5.25492,-2.33552 -5.09568,-0.74312 -7.80276,-3.07864 -2.70708,-2.3886 -2.70708,-5.67956 -0.10616,-3.92791 2.76016,-7.21887 2.86632,-3.3440405 7.59044,-3.3440405 6.63499,0.15924 9.87287,6.2634405 z" /><path
     id="path3237"
     style="font-style:normal;font-variant:normal;font-weight:normal;font-stretch:normal;font-size:51.1668px;line-height:0.7;font-family:'Highway Gothic';-inkscape-font-specification:'Highway Gothic';text-align:center;word-spacing:2.84px;text-anchor:middle;fill:#000000;fill-opacity:1;stroke:none;stroke-width:1.32709"
     d="M 85.046493,43.518784 H 62.965223 V 7.9552035 h 20.96659 v 5.6264805 h -15.34011 v 8.75819 h 10.35059 v 5.73264 h -10.35059 v 9.71363 h 16.45479 z" /><path
     id="path3239"
     style="font-style:normal;font-variant:normal;font-weight:normal;font-stretch:normal;font-size:51.1668px;line-height:0.7;font-family:'Highway Gothic';-inkscape-font-specification:'Highway Gothic';text-align:center;word-spacing:2.84px;text-anchor:middle;fill:#000000;fill-opacity:1;stroke:none;stroke-width:1.32709"
     d="m 117.47923,43.518784 h -5.62648 v -20.59503 l -8.2274,20.59503 -8.227387,-20.59503 v 20.59503 h -5.62648 V 7.9552035 h 5.62648 l 8.227387,19.9580705 8.2274,-19.9580705 h 5.62648 z" /><path
     id="path3241"
     style="font-style:normal;font-variant:normal;font-weight:normal;font-stretch:normal;font-size:51.1668px;line-height:0.7;font-family:'Highway Gothic';-inkscape-font-specification:'Highway Gothic';text-align:center;word-spacing:2.84px;text-anchor:middle;fill:#000000;fill-opacity:1;stroke:none;stroke-width:1.27926"
     d="m 22.791509,65.921934 q -1.63734,-3.01884 -5.06552,-3.07001 -1.9955,0 -3.32584,1.228 -1.33034,1.22801 -1.27917,2.91651 0,1.228 1.17684,2.20017 1.228,0.97217 3.83751,1.38151 6.191184,1.0745 8.954194,4.19567 2.81417,3.07001 2.81417,7.06102 0,4.40035 -3.32584,7.82853 -3.32584,3.377 -8.289024,3.377 -7.87969,-0.10233 -11.7172004,-7.98202 l 5.1678504,-2.60951 q 2.40484,4.96319 6.65168,4.96319 2.45601,0.0512 4.24685,-1.68851 1.790834,-1.79084 1.790834,-4.14451 0.0512,-1.58617 -1.381504,-3.12118 -1.43267,-1.58617 -5.06551,-2.25133 -4.91202,-0.71634 -7.52152,-2.96768 -2.6095104,-2.30251 -2.6095104,-5.47485 -0.10233,-3.78634 2.6606704,-6.95868 2.76301,-3.22351 7.31686,-3.22351 6.395854,0.1535 9.517024,6.03768 z" /><path
     id="path3243"
     style="font-style:normal;font-variant:normal;font-weight:normal;font-stretch:normal;font-size:51.1668px;line-height:0.7;font-family:'Highway Gothic';-inkscape-font-specification:'Highway Gothic';text-align:center;word-spacing:2.84px;text-anchor:middle;fill:#000000;fill-opacity:1;stroke:none;stroke-width:1.27926"
     d="m 64.504563,92.426334 h -5.73068 l -3.37701,-9.61936 h -10.69386 l -3.37701,9.61936 h -5.78185 l 11.76836,-34.28176 h 5.42369 z m -11.05203,-15.14537 -3.37701,-9.61936 -3.47934,9.61936 z" /><path
     id="path3245"
     style="font-style:normal;font-variant:normal;font-weight:normal;font-stretch:normal;font-size:51.1668px;line-height:0.7;font-family:'Highway Gothic';-inkscape-font-specification:'Highway Gothic';text-align:center;word-spacing:2.84px;text-anchor:middle;fill:#000000;fill-opacity:1;stroke:none;stroke-width:1.27926"
     d="m 76.294043,92.426334 h -5.52601 v -34.28176 h 5.52601 z" /><path
     id="path3247"
     style="font-style:normal;font-variant:normal;font-weight:normal;font-stretch:normal;font-size:51.1668px;line-height:0.7;font-family:'Highway Gothic';-inkscape-font-specification:'Highway Gothic';text-align:center;word-spacing:2.84px;text-anchor:middle;fill:#000000;fill-opacity:1;stroke:none;stroke-width:1.27926"
     d="m 107.39378,75.285454 q -0.0512,8.95419 -3.73517,13.04754 -3.63285,4.09334 -8.954187,4.09334 h -10.69387 v -34.28176 h 10.69387 q 5.321337,0 8.954187,4.09335 3.68401,4.09334 3.73517,13.04753 z m -17.959537,0 v 11.7172 h 5.27018 q 3.42817,-0.10233 5.321337,-3.27468 1.94434,-3.17234 1.99551,-8.44252 0,-5.62835 -1.94434,-8.59602 -1.944337,-3.01884 -5.372507,-3.12117 h -5.27018 z" /><path
     id="path3249"
     style="font-style:normal;font-variant:normal;font-weight:normal;font-stretch:normal;font-size:51.1668px;line-height:0.7;font-family:'Highway Gothic';-inkscape-font-specification:'Highway Gothic';text-align:center;word-spacing:2.84px;text-anchor:middle;fill:#000000;fill-opacity:1;stroke:none;stroke-width:1.27926"
     d="m 141.80257,92.426334 h -5.73069 l -3.377,-9.61936 h -10.69387 l -3.377,9.61936 h -5.78185 l 11.76836,-34.28176 h 5.42368 z m -11.05203,-15.14537 -3.37701,-9.61936 -3.47934,9.61936 z" /></g></svg>
