<?xml version="1.0" encoding="UTF-8" standalone="no"?>
<svg
   xmlns:dc="http://purl.org/dc/elements/1.1/"
   xmlns:cc="http://creativecommons.org/ns#"
   xmlns:rdf="http://www.w3.org/1999/02/22-rdf-syntax-ns#"
   xmlns:svg="http://www.w3.org/2000/svg"
   xmlns="http://www.w3.org/2000/svg"
   xmlns:sodipodi="http://sodipodi.sourceforge.net/DTD/sodipodi-0.dtd"
   xmlns:inkscape="http://www.inkscape.org/namespaces/inkscape"
   version="1.0"
   id="Layer_1"
   x="0px"
   y="0px"
   width="50.491341"
   height="50.492245"
   viewBox="0 0 50.491342 50.492246"
   enable-background="new 0 0 50.281 50.204"
   xml:space="preserve"
   inkscape:version="1.0 (4035a4fb49, 2020-05-01)"
   sodipodi:docname="Brasil_A-43.svg"><metadata
   id="metadata17"><rdf:RDF><cc:Work
       rdf:about=""><dc:format>image/svg+xml</dc:format><dc:type
         rdf:resource="http://purl.org/dc/dcmitype/StillImage" /></cc:Work></rdf:RDF></metadata><defs
   id="defs15" /><sodipodi:namedview
   pagecolor="#ffffff"
   bordercolor="#666666"
   borderopacity="1"
   objecttolerance="10"
   gridtolerance="10"
   guidetolerance="10"
   inkscape:pageopacity="0"
   inkscape:pageshadow="2"
   inkscape:window-width="1920"
   inkscape:window-height="1001"
   id="namedview13"
   showgrid="false"
   fit-margin-top="0.1"
   fit-margin-bottom="0.1"
   fit-margin-right="0.1"
   fit-margin-left="0.1"
   inkscape:zoom="4.7008208"
   inkscape:cx="25.585712"
   inkscape:cy="24.534345"
   inkscape:window-x="-9"
   inkscape:window-y="-9"
   inkscape:window-maximized="1"
   inkscape:current-layer="Layer_1"
   inkscape:document-rotation="0" />
<path
   clip-rule="evenodd"
   d="m 1.1090994,22.546331 21.5769996,-21.451 c 1.421,-1.41299992 3.837,-1.30899992 5.369,0.232 l 21.125,21.247 c 1.532,1.541 1.623,3.957 0.203,5.37 l -21.577,21.454 c -1.421,1.412 -3.837,1.307 -5.369,-0.235 l -21.1259996,-21.246 c -1.532,-1.542 -1.623,-3.958 -0.202,-5.371"
   id="path3"
   style="fill:#ffd700;fill-opacity:1;fill-rule:evenodd;stroke:none"
   inkscape:connector-curvature="0" />
<path
   clip-rule="evenodd"
   d="m 2.5010994,23.464331 21.0939996,-20.973 c 0.92,-0.915 2.484,-0.846 3.475,0.151 l 20.789,20.908 c 0.993,0.997 1.052,2.562 0.132,3.477 l -21.095,20.973 c -0.919,0.914 -2.482,0.847 -3.475,-0.151 l -20.7889996,-20.91 c -0.991,-0.997 -1.05,-2.561 -0.131,-3.475"
   id="path5"
   style="fill:#ffd700;fill-opacity:1;fill-rule:evenodd;stroke:none"
   inkscape:connector-curvature="0" />
<path
   stroke-miterlimit="2.613"
   d="m 2.5010994,23.464331 21.0939996,-20.973 c 0.92,-0.915 2.484,-0.846 3.475,0.151 l 20.789,20.908 c 0.993,0.997 1.052,2.562 0.132,3.477 l -21.095,20.973 c -0.919,0.914 -2.482,0.847 -3.475,-0.151 l -20.7889996,-20.91 c -0.991,-0.997 -1.05,-2.561 -0.131,-3.475 z"
   id="path7"
   inkscape:connector-curvature="0"
   style="fill:none;stroke:#000000;stroke-width:1.63;stroke-miterlimit:2.61299992" />


<path
   clip-rule="evenodd"
   d="m 19.317152,40.675282 c 2.089,-2.105 4.179,-4.209 6.27,-6.313 0.041,-0.044 0.1,-0.044 0.143,0 1.918,2.101 3.838,4.201 5.758,6.301 0.07,0.066 0.021,0.159 -0.053,0.166 -4.02,0 -8.037,0 -12.055,0 -0.086,-0.011 -0.109,-0.11 -0.063,-0.154"
   id="path11"
   inkscape:connector-curvature="0"
   style="fill-rule:evenodd" /><path
   clip-rule="evenodd"
   d="m 19.317152,10.418282 c 2.089,2.105 4.179,4.208 6.27,6.313 0.041,0.044 0.1,0.044 0.143,0 1.918,-2.1 3.838,-4.201 5.758,-6.302 0.07,-0.065 0.021,-0.158 -0.053,-0.165 -4.02,0 -8.037,0 -12.055,0 -0.086,0.01 -0.109,0.11 -0.063,0.154"
   id="path13"
   inkscape:connector-curvature="0"
   style="fill-rule:evenodd" /><path
   clip-rule="evenodd"
   d="m 19.883152,32.781282 c -0.116,0.284 -0.432,0.219 -0.396,-0.097 l 0.011,-2.585 c 0.405,-1.053 1.866,-0.529 1.673,0.45 l -1.288,2.232"
   id="path17"
   inkscape:connector-curvature="0"
   style="fill:#000000;fill-rule:evenodd" /><path
   id="rect39027-6"
   style="opacity:1;fill:#000000;stroke-width:0.459998"
   d="M 15.671539,20.749917 10.32,27.086675 v 1.344436 h 5.351539 v 2.401044 h 1.807022 v -2.401044 h 0.764448 v -1.601522 h -0.764448 v -6.079672 z m 0,2.762738 v 3.316934 H 12.90674 Z" /><g
   aria-label="5"
   id="text122"
   style="font-style:normal;font-weight:normal;font-size:12.3857px;line-height:1.25;font-family:sans-serif;fill:#000000;fill-opacity:1;stroke:none;stroke-width:0.309644"><path
     d="m 26.166582,30.831876 q -2.179883,0 -4.000581,-0.780299 l 0.80507,-1.795927 q 1.32527,0.582128 3.195511,0.582128 1.102327,0 1.721612,-0.594514 0.495428,-0.495428 0.495428,-1.213798 0,-0.656442 -0.606899,-1.028013 -0.557357,-0.3468 -1.41197,-0.3468 -0.953699,0 -2.117955,0.408728 l -1.771155,-0.284871 0.2601,-5.028594 h 6.812135 v 1.969326 H 24.53167 l -0.04954,1.213799 q 0.80507,-0.247714 1.833083,-0.247714 1.919784,0 3.08404,1.139484 0.89177,0.89177 0.89177,2.254198 0,1.362427 -0.792685,2.365668 -1.089941,1.387199 -3.331753,1.387199 z"
     style="font-style:normal;font-variant:normal;font-weight:normal;font-stretch:normal;font-family:BywayEMod;-inkscape-font-specification:BywayEMod;fill:#000000;stroke-width:0.309644"
     id="path131" /></g><g
   aria-label="m"
   id="text126"
   style="font-style:normal;font-weight:normal;font-size:10.7238px;line-height:1.25;font-family:sans-serif;fill:#000000;fill-opacity:1;stroke:none;stroke-width:0.268099"><path
     d="m 39.557051,30.826328 v -3.914187 q 0,-0.428952 -0.246648,-0.675599 -0.235923,-0.246647 -0.664875,-0.246647 -0.4504,0 -0.729219,0.246647 -0.268095,0.235924 -0.268095,0.632704 v 3.957082 h -1.651465 v -3.914187 q 0,-0.407504 -0.278818,-0.664875 -0.268095,-0.257371 -0.707771,-0.257371 -0.439676,0 -0.686323,0.235923 -0.246648,0.235924 -0.246648,0.654152 v 3.946358 H 32.415 v -6.327042 h 1.662189 v 0.235924 q 0.525466,-0.364609 1.436989,-0.364609 0.557638,0 0.922247,0.117962 0.364609,0.117961 0.697047,0.450399 0.62198,-0.568361 1.769427,-0.568361 1.083104,0 1.726532,0.611256 0.611256,0.589809 0.611256,1.512056 v 4.332415 z"
     style="font-style:normal;font-variant:normal;font-weight:normal;font-stretch:normal;font-family:BywayEMod;-inkscape-font-specification:BywayEMod;fill:#000000;stroke-width:0.268099"
     id="path128" /></g></svg>
